<svg xmlns="http://www.w3.org/2000/svg" viewBox="0 0 400 300" width="400" height="300" role="img">
  <!-- Ilustração vetorial do sensor (desenhada para o catálogo, sem dependência externa) -->

  
  <rect x="120" y="80" width="160" height="110" rx="6" fill="#5b3aa8" stroke="#402878" stroke-width="3"/>
  <circle cx="132" cy="92" r="4.5" fill="#f1f3f6" stroke="#402878" stroke-width="2"/>
  <circle cx="268" cy="92" r="4.5" fill="#f1f3f6" stroke="#402878" stroke-width="2"/>
  <circle cx="132" cy="178" r="4.5" fill="#f1f3f6" stroke="#402878" stroke-width="2"/>
  <circle cx="268" cy="178" r="4.5" fill="#f1f3f6" stroke="#402878" stroke-width="2"/>
  <rect x="168" y="108" width="64" height="34" rx="2" fill="#20262e" stroke="#131820" stroke-width="2"/><circle cx="175" cy="115" r="2.5" fill="#7c8794"/><rect x="172.5" y="104" width="3" height="4" fill="#c8d0da"/><rect x="172.5" y="142" width="3" height="4" fill="#c8d0da"/><rect x="185.5" y="104" width="3" height="4" fill="#c8d0da"/><rect x="185.5" y="142" width="3" height="4" fill="#c8d0da"/><rect x="198.5" y="104" width="3" height="4" fill="#c8d0da"/><rect x="198.5" y="142" width="3" height="4" fill="#c8d0da"/><rect x="211.5" y="104" width="3" height="4" fill="#c8d0da"/><rect x="211.5" y="142" width="3" height="4" fill="#c8d0da"/><rect x="224.5" y="104" width="3" height="4" fill="#c8d0da"/><rect x="224.5" y="142" width="3" height="4" fill="#c8d0da"/><text x="200" y="129" font-family="monospace" font-size="11" fill="#aab3c0" text-anchor="middle">BH1750</text>
  <rect x="140" y="160" width="18" height="10" rx="2" fill="#20262e"/>
  <rect x="166" y="160" width="18" height="10" rx="2" fill="#20262e"/>
  <rect x="142" y="190" width="110" height="12" rx="2" fill="#20262e"/><rect x="151.5" y="200" width="5" height="34" fill="#d8a63c" stroke="#a97d21" stroke-width="1"/><rect x="173.5" y="200" width="5" height="34" fill="#d8a63c" stroke="#a97d21" stroke-width="1"/><rect x="195.5" y="200" width="5" height="34" fill="#d8a63c" stroke="#a97d21" stroke-width="1"/><rect x="217.5" y="200" width="5" height="34" fill="#d8a63c" stroke="#a97d21" stroke-width="1"/><rect x="239.5" y="200" width="5" height="34" fill="#d8a63c" stroke="#a97d21" stroke-width="1"/>
  <text x="153" y="243" font-family="monospace" font-size="10" fill="#7c8794" text-anchor="middle">VCC</text>
  <text x="175" y="243" font-family="monospace" font-size="10" fill="#7c8794" text-anchor="middle">GND</text>
  <text x="197" y="243" font-family="monospace" font-size="10" fill="#7c8794" text-anchor="middle">SCL</text>
  <text x="219" y="243" font-family="monospace" font-size="10" fill="#7c8794" text-anchor="middle">SDA</text>
  <text x="241" y="243" font-family="monospace" font-size="10" fill="#7c8794" text-anchor="middle">ADD</text>
  <text x="200" y="288" font-family="monospace" font-size="13" letter-spacing="1.5" fill="#7c8794" text-anchor="middle">BH1750 · I2C</text>
</svg>
