<svg xmlns="http://www.w3.org/2000/svg" viewBox="0 0 400 300" width="400" height="300" role="img">
  <!-- Ilustração vetorial do sensor (desenhada para o catálogo, sem dependência externa) -->

  <rect x="40" y="60" width="150" height="180" rx="6" fill="#1b2028" stroke="#2b323c" stroke-width="3"/>
  <rect x="52" y="76" width="7" height="148" rx="3" fill="#c07a3e"/><rect x="67" y="76" width="7" height="148" rx="3" fill="#c07a3e"/><rect x="82" y="76" width="7" height="148" rx="3" fill="#c07a3e"/><rect x="97" y="76" width="7" height="148" rx="3" fill="#c07a3e"/><rect x="112" y="76" width="7" height="148" rx="3" fill="#c07a3e"/><rect x="127" y="76" width="7" height="148" rx="3" fill="#c07a3e"/><rect x="142" y="76" width="7" height="148" rx="3" fill="#c07a3e"/><rect x="157" y="76" width="7" height="148" rx="3" fill="#c07a3e"/><rect x="172" y="76" width="7" height="148" rx="3" fill="#c07a3e"/>
  <rect x="52" y="76" width="7" height="148" fill="#d08a4a"/>
  <path d="M 190 100 h 40 M 190 140 h 40" stroke="#20262e" stroke-width="4"/>
  
  <rect x="230" y="90" width="130" height="100" rx="6" fill="#1f6feb" stroke="#12508f" stroke-width="3"/>
  <circle cx="242" cy="102" r="4.5" fill="#f1f3f6" stroke="#12508f" stroke-width="2"/>
  <circle cx="348" cy="102" r="4.5" fill="#f1f3f6" stroke="#12508f" stroke-width="2"/>
  <circle cx="242" cy="178" r="4.5" fill="#f1f3f6" stroke="#12508f" stroke-width="2"/>
  <circle cx="348" cy="178" r="4.5" fill="#f1f3f6" stroke="#12508f" stroke-width="2"/>
  
  <rect x="315" y="125" width="30" height="30" rx="3" fill="#2b4fd4" stroke="#1b34a0" stroke-width="2"/>
  <circle cx="330" cy="140" r="11" fill="#f1f3f6"/>
  <line x1="324" y1="140" x2="336" y2="140" stroke="#0d1117" stroke-width="3"/>
  <rect x="252" y="118" width="42" height="26" rx="2" fill="#20262e" stroke="#131820" stroke-width="2"/><circle cx="259" cy="125" r="2.5" fill="#7c8794"/><rect x="256.5" y="114" width="3" height="4" fill="#c8d0da"/><rect x="256.5" y="144" width="3" height="4" fill="#c8d0da"/><rect x="271.5" y="114" width="3" height="4" fill="#c8d0da"/><rect x="271.5" y="144" width="3" height="4" fill="#c8d0da"/><rect x="286.5" y="114" width="3" height="4" fill="#c8d0da"/><rect x="286.5" y="144" width="3" height="4" fill="#c8d0da"/>
  
  <rect x="250" y="163" width="16" height="10" rx="2" fill="#d94f3d" stroke="#0d1117" stroke-width="1.5" opacity="0.9"/> 
  <rect x="280" y="163" width="16" height="10" rx="2" fill="#3fb950" stroke="#0d1117" stroke-width="1.5" opacity="0.9"/>
  <rect x="258" y="190" width="80" height="12" rx="2" fill="#20262e"/><rect x="266.5" y="200" width="5" height="26" fill="#d8a63c" stroke="#a97d21" stroke-width="1"/><rect x="286.5" y="200" width="5" height="26" fill="#d8a63c" stroke="#a97d21" stroke-width="1"/><rect x="306.5" y="200" width="5" height="26" fill="#d8a63c" stroke="#a97d21" stroke-width="1"/><rect x="326.5" y="200" width="5" height="26" fill="#d8a63c" stroke="#a97d21" stroke-width="1"/>
  <circle cx="90" cy="46" r="5" fill="#5ac8fa"/><circle cx="130" cy="38" r="4" fill="#5ac8fa"/><circle cx="160" cy="48" r="6" fill="#5ac8fa"/>
  <text x="200" y="288" font-family="monospace" font-size="13" letter-spacing="1.5" fill="#7c8794" text-anchor="middle">FC-37 · sensor de chuva</text>
</svg>
